<svg width="24" height="24" viewBox="0 0 24 24" fill="none" xmlns="http://www.w3.org/2000/svg">
<path fill-rule="evenodd" clip-rule="evenodd" d="M12 24C18.6274 24 24 18.6274 24 12C24 5.37258 18.6274 0 12 0C5.37257 0 0 5.37258 0 12C0 18.6274 5.37257 24 12 24ZM15.7436 5.5901C15.9258 4.94283 15.2977 4.56008 14.724 4.96878L6.71587 10.6737C6.09373 11.117 6.19159 12 6.86287 12H8.97163V11.9837H13.0815L9.73273 13.1652L8.25643 18.4099C8.07421 19.0572 8.70229 19.4399 9.27601 19.0312L17.2841 13.3263C17.9063 12.8831 17.8084 12 17.1371 12H13.9393L15.7436 5.5901Z" fill="#0260FF"/>
</svg>
